<svg width="24" height="24" viewBox="0 0 24 24" fill="none" xmlns="http://www.w3.org/2000/svg">
<path fill-rule="evenodd" clip-rule="evenodd" d="M8.69612 1.38818C8.5113 1.09608 8.21769 0.888945 7.87997 0.813093C7.54211 0.737206 7.18814 0.798889 6.89614 0.983893L4.93542 2.22538C3.80206 2.943 3.11489 4.19097 3.11485 5.5321C3.11489 5.5339 3.11484 5.53613 3.11489 5.53793C3.14203 7.63647 3.64626 11.1346 6.14365 15.0788C8.64104 19.023 11.5885 20.9749 13.4754 21.8942C13.4766 21.8949 13.4783 21.8953 13.4799 21.8961C14.691 22.469 16.1121 22.3821 17.2443 21.6651C17.908 21.2485 18.6641 20.7697 19.2066 20.4262C19.4991 20.2415 19.7058 19.9478 19.7817 19.6099C19.8576 19.2722 19.7959 18.9182 19.6109 18.6262C18.9847 17.6373 17.8772 15.8881 17.2512 14.8992C17.0662 14.6072 16.7726 14.3999 16.4349 14.3241C16.0971 14.2482 15.7432 14.3096 15.451 14.4949L13.4484 15.7631C13.3381 15.8328 13.2029 15.8493 13.08 15.8091C12.4678 15.4706 11.249 14.6178 9.9964 12.6395C8.78425 10.7251 8.46517 9.47841 8.39109 8.87522C8.40327 8.75587 8.46383 8.64903 8.55857 8.57808C8.56066 8.57676 8.56284 8.57501 8.56502 8.57326C9.08703 8.16814 10.1025 7.41016 10.7686 6.91308C11.3149 6.50521 11.4552 5.74558 11.0907 5.16941L8.69612 1.38818ZM7.96137 1.85341L10.3554 5.63441C10.4771 5.82667 10.4301 6.07998 10.2481 6.21567C9.57911 6.71523 8.55892 7.47706 8.03316 7.88493C7.72246 8.11871 7.53386 8.48065 7.51957 8.86921C7.51881 8.89053 7.51979 8.91209 7.52223 8.93309C7.59322 9.5772 7.90619 10.9646 9.26158 13.1046C10.6575 15.31 12.0297 16.2279 12.6894 16.5874C12.7052 16.5958 12.7218 16.6036 12.7386 16.6101C13.1258 16.7621 13.5622 16.7201 13.9135 16.4977L15.9161 15.2295C16.0134 15.1681 16.1318 15.1474 16.2441 15.1726C16.3565 15.1978 16.4547 15.2672 16.5163 15.3643L18.876 19.0913C18.9375 19.1884 18.9582 19.3068 18.933 19.4192C18.9077 19.5317 18.8384 19.6297 18.7413 19.6913C18.1994 20.0341 17.4447 20.5123 16.7805 20.9292C16.78 20.9296 16.7794 20.9299 16.7789 20.9302C15.8988 21.4871 14.7949 21.5553 13.8536 21.1107C12.0559 20.2349 9.25639 18.3692 6.87833 14.6134C4.50039 10.8579 4.0111 7.52927 3.98462 5.5293C3.9856 4.48703 4.51991 3.51753 5.40064 2.95988L7.36136 1.7184C7.45859 1.65696 7.57683 1.6362 7.68935 1.66147C7.80174 1.68672 7.89989 1.75607 7.96136 1.85316L7.96137 1.85341Z" fill="#F4862C" stroke="#F4862C" stroke-width="0.5"/>
</svg>
