<svg width="20" height="23" viewBox="0 0 20 23" fill="none" xmlns="http://www.w3.org/2000/svg">
<path d="M9.99181 0C6.97471 0 4.5383 2.50389 4.5383 5.60625C4.5383 6.3187 4.74385 7.22579 4.97853 7.85234L10.0008 18.4L15.0231 7.85234C15.2591 7.22556 15.4633 6.31902 15.4633 5.60625C15.4633 2.50389 13.0089 0 9.99181 0ZM10.0008 3.1625C11.271 3.1625 12.3008 4.19224 12.3008 5.4625C12.3008 6.73276 11.271 7.7625 10.0008 7.7625C8.73053 7.7625 7.70078 6.73276 7.70078 5.4625C7.70078 4.19224 8.73053 3.1625 10.0008 3.1625ZM3.10078 12.65L0.800781 23H19.2008L16.9008 12.65H13.3789C12.2526 15.0097 11.131 17.3718 10.0008 19.7297C8.87066 17.3717 7.74794 15.0103 6.62266 12.65H3.10078Z" fill="#FFFFFF"/>
</svg>
