<svg width="22" height="22" viewBox="0 0 22 22" fill="none" xmlns="http://www.w3.org/2000/svg">
<path d="M3.25765 3.32302C5.04661 5.28469 6.06342 7.79821 6.16979 10.4412H10.4418V0C7.60164 0.117047 5.03784 1.32468 3.16016 3.21607L3.25765 3.32302Z" fill="#FFFFFF"/>
<path d="M11.3496 10.4412H15.6216C15.728 7.79821 16.7447 5.28469 18.5335 3.32302L18.6304 3.21674C16.753 1.32529 14.1895 0.117435 11.3496 0V10.4412Z" fill="#FFFFFF"/>
<path d="M16.5312 11.3502C16.6371 13.7655 17.5701 16.0617 19.206 17.856L19.2462 17.9002C20.7481 16.1128 21.6873 13.8385 21.79 11.3502H16.5312Z" fill="#FFFFFF"/>
<path d="M19.2057 3.93538C17.5701 5.7293 16.637 8.02547 16.5312 10.4412H21.7901C21.6877 7.95403 20.7483 5.67927 19.2461 3.89111L19.2057 3.93538Z" fill="#FFFFFF"/>
<path d="M18.5333 18.4684C16.7447 16.5064 15.728 13.9928 15.6216 11.3502H11.3496V21.7897C14.1894 21.6724 16.7529 20.4657 18.6303 18.5748L18.5333 18.4684Z" fill="#FFFFFF"/>
<path d="M10.4416 11.3502H6.16959C6.06322 13.9925 5.04644 16.5059 3.2577 18.4684L3.16016 18.5755C5.03782 20.4662 7.60156 21.6728 10.4416 21.7897V11.3502Z" fill="#FFFFFF"/>
<path d="M2.54458 3.8905C1.04197 5.67882 0.102458 7.95375 0 10.4412H5.2602C5.15439 8.02553 4.22118 5.72936 2.58552 3.93544L2.54458 3.8905Z" fill="#FFFFFF"/>
<path d="M0 11.3502C0.102763 13.8388 1.04216 16.1133 2.54438 17.9008L2.58524 17.856C4.22109 16.0617 5.15433 13.7655 5.26015 11.3502H0Z" fill="#FFFFFF"/>
</svg>
