<svg width="16" height="24" viewBox="0 0 16 24" fill="none" xmlns="http://www.w3.org/2000/svg">
<path d="M0 22.1143V5.07868C0 4.76538 0.239258 4.51063 0.536267 4.51063H3.1571C3.1626 2.0364 5.06016 0.00137637 7.38123 0.00137637C9.00378 0.00137637 10.2716 -0.0952505 11.6026 1.33073C12.3671 2.14767 12.8401 3.27205 12.8429 4.51063H15.4665C15.7607 4.51063 16 4.76538 16 5.07868V22.1143C16 23.1479 15.2052 24 14.2344 24H1.76556C0.794775 24 0 23.1479 0 22.1143ZM12.7109 19.5669H3.29185C2.45583 19.5669 2.45583 21.2037 3.29185 21.2037H12.7109C13.5442 21.2037 13.5442 19.5669 12.7109 19.5669ZM4.22688 4.51063H11.7759C11.7676 2.65715 10.3568 1.1404 8.61877 1.1404C7.27673 1.1404 6.21244 0.999855 5.15366 2.13303C4.58439 2.74207 4.22963 3.58243 4.22688 4.51063Z" fill="white"/>
</svg>
